<?xml version="1.0" encoding="UTF-8"?><svg id="Layer_1" xmlns="http://www.w3.org/2000/svg" viewBox="0 0 180 180"><defs><style>.cls-1{fill:#eeedea;}</style></defs><path class="cls-1" d="M90,178.77C41.05,178.77,1.23,138.95,1.23,90S41.05,1.23,90,1.23s88.77,39.82,88.77,88.77-39.82,88.77-88.77,88.77Zm0-175.89C41.96,2.87,2.87,41.96,2.87,90s39.09,87.13,87.13,87.13,87.13-39.09,87.13-87.13S138.04,2.87,90,2.87Z"/><g><g><path class="cls-1" d="M133.9,65.99v-.58h-6.53l-24.53,49.63-27.62-49.63h-7.68v.46s2.18,.46,2.18,1.95v35.54h1.26v-30.96l29,52.27,24.07-48.6v51.01c0,1.72-2.06,1.83-2.06,1.83v.69h11.23v-.69s-2.07-.23-2.07-1.95c0-49.4,0-58.57,.58-59.72,.68-.91,1.83-1.14,2.17-1.26Z"/><path class="cls-1" d="M69.71,126.62c-.23,1.49-2.63,2.29-2.63,2.29v.69h6.65v-.69s-2.63-.8-2.75-2.29v-13.09h-1.26v13.09Z"/></g><rect class="cls-1" x="139.57" y="121.25" width="6.26" height="6.26" transform="translate(-46.16 137.33) rotate(-45)"/><path class="cls-1" d="M54.07,106.68V47.43c0-1.61,2.06-1.95,2.06-1.95v-.57h-11.23v.69s2.06,.23,2.06,1.83v59.26c0,1.72-2.06,1.95-2.06,1.95v.57h42.21l-.9-1.45c-18.83,.03-32.15,.4-32.15-1.07Z"/></g></svg>