<?xml version="1.0" encoding="UTF-8"?><svg id="Layer_1" xmlns="http://www.w3.org/2000/svg" viewBox="0 0 360 89.24"><defs><style>.cls-1{fill:#736763;}</style></defs><g><path class="cls-1" d="M84.94,87.1c-4.03,0-7-3.17-7-7.2s2.95-7.24,7.06-7.24c2.53,0,4.05,.9,5.45,2.21l-1.08,1.16c-1.18-1.12-2.49-1.91-4.39-1.91-3.09,0-5.41,2.49-5.41,5.74s2.33,5.79,5.41,5.79c1.91,0,3.17-.74,4.51-2.02l1.04,1.02c-1.46,1.48-3.05,2.45-5.59,2.45Z"/><path class="cls-1" d="M106.9,87.1c-4.25,0-7.1-3.33-7.1-7.2s2.89-7.24,7.14-7.24,7.1,3.33,7.1,7.2-2.89,7.24-7.14,7.24Zm0-12.99c-3.19,0-5.47,2.55-5.47,5.74s2.31,5.79,5.5,5.79,5.47-2.55,5.47-5.74-2.31-5.79-5.5-5.79Z"/><path class="cls-1" d="M124.92,72.9h1.58v12.51h7.86v1.46h-9.43v-13.96Z"/><path class="cls-1" d="M144.61,72.9h1.58v12.51h7.86v1.46h-9.43v-13.96Z"/><path class="cls-1" d="M174.38,74.33h-8.52v4.77h7.62v1.44h-7.62v4.89h8.62v1.44h-10.19v-13.96h10.09v1.44Z"/><path class="cls-1" d="M191.07,87.1c-4.03,0-7-3.17-7-7.2s2.95-7.24,7.06-7.24c2.53,0,4.05,.9,5.45,2.21l-1.08,1.16c-1.18-1.12-2.49-1.91-4.39-1.91-3.09,0-5.41,2.49-5.41,5.74s2.33,5.79,5.41,5.79c1.91,0,3.17-.74,4.51-2.02l1.04,1.02c-1.46,1.48-3.05,2.45-5.59,2.45Z"/><path class="cls-1" d="M212.39,86.86h-1.6v-12.51h-4.69v-1.46h10.97v1.46h-4.69v12.51Z"/><path class="cls-1" d="M229,72.9v13.96h-1.58v-13.96h1.58Z"/><path class="cls-1" d="M247.02,87.1c-4.25,0-7.1-3.33-7.1-7.2s2.89-7.24,7.14-7.24,7.1,3.33,7.1,7.2-2.89,7.24-7.14,7.24Zm0-12.99c-3.19,0-5.47,2.55-5.47,5.74s2.31,5.79,5.5,5.79,5.47-2.55,5.47-5.74-2.31-5.79-5.5-5.79Z"/><path class="cls-1" d="M275.32,72.9h1.53v13.96h-1.26l-9.02-11.45v11.45h-1.53v-13.96h1.47l8.8,11.19v-11.19Z"/></g><path d="M28.76,43.71v2.77H1.64v-.39s1.42-.16,1.42-1.34V3.87c0-1.11-1.42-1.26-1.42-1.26v-.48h7.75v.39s-1.42,.24-1.42,1.34V44.74c0,1.26,.63,.55,18.74,.79,1.11,0,1.66-1.82,1.66-1.82h.39Z"/><path d="M52.07,46.09v.39h-7.83v-.39s1.5-.16,1.5-1.34V3.87c0-1.11-1.5-1.26-1.5-1.26v-.48h7.83v.39s-1.42,.24-1.42,1.26V44.74c0,1.11,1.42,1.34,1.42,1.34Z"/><path d="M96.82,43.71v2.77h-27.11v-.39s1.42-.16,1.42-1.34V3.87c0-1.11-1.42-1.26-1.42-1.26v-.48h7.75v.39s-1.42,.24-1.42,1.34V44.74c0,1.26,.63,.55,18.74,.79,1.11,0,1.66-1.82,1.66-1.82h.39Z"/><path d="M139.43,43.71v2.77h-27.11v-.39s1.42-.16,1.42-1.34V3.87c0-1.11-1.42-1.26-1.42-1.26v-.48h7.75v.39s-1.42,.24-1.42,1.34V44.74c0,1.26,.63,.55,18.74,.79,1.11,0,1.66-1.82,1.66-1.82h.39Z"/><path d="M162.75,46.09v.39h-7.83v-.39s1.5-.16,1.5-1.34V3.87c0-1.11-1.5-1.26-1.5-1.26v-.48h7.83v.39s-1.42,.24-1.42,1.26V44.74c0,1.11,1.42,1.34,1.42,1.34Z"/><path d="M217.13,46.09v.39h-7.82v-.39l.71-.24c.16-.08,.31-.16,.47-.31,.16-.24,.24-.4,.08-.63l-3.87-9.64h-21.58q-4.19,9.41-4.19,9.48c-.16,.24,.24,.63,.39,.71,.24,.16,.55,.32,.79,.39,0,0,.55,.16,.55,.24v.39h-4.51v-.39c0-.08,.08-.08,.08-.08,.24-.08,.55-.16,.79-.32,.32-.16,.63-.39,.79-.71L198.63,2.76c0-.16,.08-.24,.16-.31,0-.08,0-.16,.08-.24v-.08s15.41,39.29,16.68,42.61c0,0,.16,.16,.16,.24,.48,1.03,1.42,1.11,1.42,1.11Zm-31.62-11.7l20.87-.08-9.88-24.35c0-.08-.08-.24-.16-.32v.08l-9.64,21.9c-.16,.48-.39,.95-.63,1.42-.16,.39-.39,.87-.55,1.34Z"/><path d="M263.8,2.53s-1.66,.63-1.74,1.66V46.48h-4.75L235.34,7.03V44.42c.08,1.03,1.82,1.58,1.82,1.58v.48h-4.51v-.48s1.66-.55,1.82-1.58V3.87c0-1.03-1.5-1.34-1.5-1.34v-.32h5.3l22.85,40.95V4.19c-.08-1.03-1.82-1.66-1.82-1.66v-.32h4.51v.32Z"/><path d="M342.36,3.48c-.4,.79-.4,7.12-.4,41.19,0,1.18,1.43,1.34,1.43,1.34v.48h-7.75v-.48s1.42-.08,1.42-1.26V9.56l-16.6,33.52-20-36.05V44.42c.08,1.03,1.9,1.58,1.9,1.58v.48h-4.58v-.48s1.66-.55,1.82-1.58V3.87c0-1.03-1.5-1.34-1.5-1.34v-.32h5.3l19.05,34.23L339.35,2.21h4.51v.4c-.24,.08-1.03,.24-1.5,.87Z"/><rect x="353.15" y="40.72" width="4.32" height="4.32" transform="translate(73.74 263.8) rotate(-45)"/></svg>