<?xml version="1.0" encoding="UTF-8"?>
<svg xmlns="http://www.w3.org/2000/svg" xmlns:xlink="http://www.w3.org/1999/xlink" width="150.008" height="35.732" viewBox="0 0 150.008 35.732">
  <defs>
    <clipPath id="clip-path">
      <rect id="Rectangle_10" data-name="Rectangle 10" width="150.008" height="35.732"></rect>
    </clipPath>
  </defs>
  <g id="Lillain_M._Collection_Logo-black" data-name="Lillain M. Collection Logo-black" transform="translate(0 0)">
    <g id="Group_16" data-name="Group 16" transform="translate(0 0)" clip-path="url(#clip-path)">
      <path id="Path_1" data-name="Path 1" d="M79.243,76.6a3.038,3.038,0,0,1,.025-6.074,3.055,3.055,0,0,1,2.29.931l-.452.487a2.557,2.557,0,0,0-1.846-.8,2.43,2.43,0,0,0,0,4.849,2.549,2.549,0,0,0,1.9-.848l.437.428A3.057,3.057,0,0,1,79.243,76.6" transform="translate(-44.212 -40.868)" fill="#736763"></path>
      <path id="Path_2" data-name="Path 2" d="M101.146,76.6a3.037,3.037,0,1,1,3-3.046,2.949,2.949,0,0,1-3,3.046m0-5.461a2.309,2.309,0,0,0-2.3,2.416,2.337,2.337,0,0,0,2.315,2.433,2.309,2.309,0,0,0,2.3-2.416,2.337,2.337,0,0,0-2.315-2.433" transform="translate(-56.88 -40.868)" fill="#736763"></path>
      <path id="Path_3" data-name="Path 3" d="M123.28,70.766h.663v5.26h3.3v.612H123.28Z" transform="translate(-71.437 -41.006)" fill="#736763"></path>
      <path id="Path_4" data-name="Path 4" d="M142.964,70.766h.663v5.26h3.3v.612h-3.967Z" transform="translate(-82.843 -41.006)" fill="#736763"></path>
      <path id="Path_5" data-name="Path 5" d="M166.89,71.369h-3.581v2.006h3.2v.6h-3.2v2.056h3.624v.6h-4.287V70.766h4.244Z" transform="translate(-94.248 -41.007)" fill="#736763"></path>
      <path id="Path_6" data-name="Path 6" d="M185.371,76.6a3.038,3.038,0,0,1,.025-6.074,3.056,3.056,0,0,1,2.29.931l-.452.487a2.558,2.558,0,0,0-1.846-.8,2.43,2.43,0,0,0,0,4.849,2.551,2.551,0,0,0,1.9-.848l.437.428a3.058,3.058,0,0,1-2.349,1.032" transform="translate(-105.71 -40.868)" fill="#736763"></path>
      <path id="Path_7" data-name="Path 7" d="M207.1,76.638h-.672v-5.26h-1.971v-.612h4.614v.612H207.1Z" transform="translate(-118.478 -41.007)" fill="#736763"></path>
      <rect id="Rectangle_8" data-name="Rectangle 8" width="0.663" height="5.872" transform="translate(94.945 29.759)" fill="#736763"></rect>
      <path id="Path_8" data-name="Path 8" d="M241.261,76.6a3.037,3.037,0,1,1,3-3.046,2.949,2.949,0,0,1-3,3.046m0-5.461a2.309,2.309,0,0,0-2.3,2.416,2.337,2.337,0,0,0,2.315,2.433,2.309,2.309,0,0,0,2.3-2.416,2.337,2.337,0,0,0-2.315-2.433" transform="translate(-138.073 -40.868)" fill="#736763"></path>
      <path id="Path_9" data-name="Path 9" d="M267.719,70.766h.645v5.872h-.528l-3.792-4.816v4.816H263.4V70.766h.62l3.7,4.707Z" transform="translate(-152.632 -41.006)" fill="#736763"></path>
      <path id="Path_10" data-name="Path 10" d="M11.4,17.485v1.164H0v-.166s.6-.067.6-.566V.731C.6.265,0,.2,0,.2V0H3.257V.166s-.6.1-.6.566V17.918c0,.532.267.233,7.879.333.465,0,.7-.765.7-.765Z" transform="translate(0 0)"></path>
      <path id="Path_11" data-name="Path 11" d="M45.9,18.483v.166H42.6v-.166s.632-.066.632-.566V.731C43.236.265,42.6.2,42.6.2V0H45.9V.166s-.6.1-.6.532v17.22c0,.465.6.566.6.566" transform="translate(-24.688 0)"></path>
      <path id="Path_12" data-name="Path 12" d="M79.469,17.485v1.164h-11.4v-.166s.6-.067.6-.566V.731c0-.466-.6-.532-.6-.532V0h3.257V.166s-.6.1-.6.566V17.918c0,.532.267.233,7.879.333.465,0,.7-.765.7-.765Z" transform="translate(-39.443 0)"></path>
      <path id="Path_13" data-name="Path 13" d="M122.073,17.485v1.164h-11.4v-.166s.6-.067.6-.566V.731c0-.466-.6-.532-.6-.532V0h3.257V.166s-.6.1-.6.566V17.918c0,.532.267.233,7.879.333.465,0,.7-.765.7-.765Z" transform="translate(-64.13 0)"></path>
      <path id="Path_14" data-name="Path 14" d="M156.567,18.483v.166h-3.291v-.166s.632-.066.632-.566V.731c0-.466-.632-.532-.632-.532V0h3.291V.166s-.6.1-.6.532v17.22c0,.465.6.566.6.566" transform="translate(-88.819 0)"></path>
      <path id="Path_15" data-name="Path 15" d="M192.9,18.483v.166h-3.29v-.166l.3-.1a.7.7,0,0,0,.2-.132c.067-.1.1-.167.034-.266l-1.629-4.055h-9.075c-1.762,3.956-1.762,3.956-1.762,3.988-.066.1.1.267.166.3a1.545,1.545,0,0,0,.333.166s.233.066.233.1v.166h-1.895v-.166a.033.033,0,0,1,.034-.034,1.35,1.35,0,0,0,.331-.133.721.721,0,0,0,.333-.3L185.122.265a.173.173,0,0,1,.066-.132.122.122,0,0,1,.034-.1V0s6.482,16.521,7.013,17.918c0,0,.067.067.067.1a.782.782,0,0,0,.6.466m-13.3-4.92,8.776-.034L184.225,3.291a.246.246,0,0,0-.066-.133v.033L180.1,12.4a4.6,4.6,0,0,1-.266.6c-.067.166-.166.366-.233.566" transform="translate(-102.284 0)"></path>
      <path id="Path_16" data-name="Path 16" d="M244.106.21s-.7.267-.731.7V18.693h-2L232.138,2.105V17.829c.034.432.765.665.765.665v.2h-1.895v-.2s.7-.233.764-.665V.776c0-.432-.631-.566-.631-.566V.077h2.227l9.607,17.22V.909c-.032-.432-.764-.7-.764-.7V.077h1.895Z" transform="translate(-133.862 -0.045)"></path>
      <path id="Path_17" data-name="Path 17" d="M314.881.61c-.167.333-.167,2.992-.167,17.321,0,.5.6.564.6.564v.2h-3.259v-.2s.6-.032.6-.532V3.169l-6.981,14.1L297.262,2.106V17.83c.034.432.8.664.8.664v.2h-1.928v-.2s.7-.232.764-.664V.777c0-.432-.631-.566-.631-.566V.078h2.227L306.5,14.472,313.617.078h1.895V.245a1.149,1.149,0,0,0-.631.365" transform="translate(-171.599 -0.045)"></path>
      <rect id="Rectangle_9" data-name="Rectangle 9" width="1.814" height="1.814" transform="translate(147.442 17.136) rotate(-45)"></rect>
    </g>
  </g>
</svg>
