<svg xmlns="http://www.w3.org/2000/svg" xmlns:xlink="http://www.w3.org/1999/xlink" width="180.52" height="43" viewBox="0 0 180.52 43">
  <defs>
    <clipPath id="clip-path">
      <rect id="Rectangle_10" data-name="Rectangle 10" width="180.52" height="43" fill="#fff"/>
    </clipPath>
  </defs>
  <g id="Group_16" data-name="Group 16" clip-path="url(#clip-path)">
    <path id="Path_1" data-name="Path 1" d="M79.841,77.835a3.656,3.656,0,0,1,.03-7.309,3.676,3.676,0,0,1,2.756,1.12l-.545.586a3.077,3.077,0,0,0-2.221-.969,2.924,2.924,0,0,0,0,5.835,3.068,3.068,0,0,0,2.281-1.02l.525.515a3.679,3.679,0,0,1-2.827,1.242" transform="translate(-37.686 -34.835)" fill="#fff"/>
    <path id="Path_2" data-name="Path 2" d="M101.753,77.836a3.655,3.655,0,1,1,3.614-3.665,3.549,3.549,0,0,1-3.614,3.665m0-6.572a2.778,2.778,0,0,0-2.766,2.907,2.812,2.812,0,0,0,2.786,2.928,2.778,2.778,0,0,0,2.766-2.907,2.812,2.812,0,0,0-2.786-2.928" transform="translate(-48.484 -34.836)" fill="#fff"/>
    <path id="Path_3" data-name="Path 3" d="M123.28,70.766h.8V77.1h3.977v.737H123.28Z" transform="translate(-60.892 -34.953)" fill="#fff"/>
    <path id="Path_4" data-name="Path 4" d="M142.964,70.766h.8V77.1h3.977v.737h-4.774Z" transform="translate(-70.615 -34.953)" fill="#fff"/>
    <path id="Path_5" data-name="Path 5" d="M167.753,71.492h-4.31v2.413H167.3v.727h-3.856v2.474H167.8v.726h-5.159V70.766h5.107Z" transform="translate(-80.336 -34.954)" fill="#fff"/>
    <path id="Path_6" data-name="Path 6" d="M185.97,77.835a3.656,3.656,0,0,1,.03-7.309,3.678,3.678,0,0,1,2.756,1.12l-.545.586a3.078,3.078,0,0,0-2.222-.969,2.924,2.924,0,0,0,0,5.835,3.07,3.07,0,0,0,2.282-1.02l.525.515a3.68,3.68,0,0,1-2.827,1.242" transform="translate(-90.106 -34.835)" fill="#fff"/>
    <path id="Path_7" data-name="Path 7" d="M207.639,77.833h-.808V71.5h-2.372v-.737h5.552V71.5h-2.371Z" transform="translate(-100.989 -34.954)" fill="#fff"/>
    <rect id="Rectangle_8" data-name="Rectangle 8" width="0.798" height="7.067" transform="translate(114.257 35.812)" fill="#fff"/>
    <path id="Path_8" data-name="Path 8" d="M241.868,77.836a3.655,3.655,0,1,1,3.614-3.665,3.549,3.549,0,0,1-3.614,3.665m0-6.572a2.778,2.778,0,0,0-2.766,2.907,2.812,2.812,0,0,0,2.786,2.928,2.778,2.778,0,0,0,2.766-2.907,2.812,2.812,0,0,0-2.786-2.928" transform="translate(-117.691 -34.836)" fill="#fff"/>
    <path id="Path_9" data-name="Path 9" d="M268.6,70.766h.776v7.067h-.636l-4.564-5.8v5.8H263.4V70.766h.746l4.453,5.664Z" transform="translate(-130.101 -34.953)" fill="#fff"/>
    <path id="Path_10" data-name="Path 10" d="M13.721,21.042v1.4H0v-.2s.72-.08.72-.681V.88C.72.319,0,.24,0,.24V0H3.92V.2S3.2.319,3.2.88V21.562c0,.64.321.28,9.482.4.56,0,.84-.921.84-.921Z" transform="translate(0 0)" fill="#fff"/>
    <path id="Path_11" data-name="Path 11" d="M46.564,22.243v.2H42.6v-.2s.761-.08.761-.681V.88c0-.561-.761-.64-.761-.64V0h3.96V.2s-.72.119-.72.64V21.562c0,.56.72.681.72.681" transform="translate(-21.044 0)" fill="#fff"/>
    <path id="Path_12" data-name="Path 12" d="M81.788,21.042v1.4H68.067v-.2s.72-.08.72-.681V.88c0-.561-.72-.64-.72-.64V0h3.92V.2s-.72.119-.72.681V21.562c0,.64.321.28,9.482.4.56,0,.84-.921.84-.921Z" transform="translate(-33.621 0)" fill="#fff"/>
    <path id="Path_13" data-name="Path 13" d="M124.392,21.042v1.4H110.671v-.2s.72-.08.72-.681V.88c0-.561-.72-.64-.72-.64V0h3.92V.2s-.72.119-.72.681V21.562c0,.64.321.28,9.482.4.56,0,.84-.921.84-.921Z" transform="translate(-54.664 0)" fill="#fff"/>
    <path id="Path_14" data-name="Path 14" d="M157.236,22.243v.2h-3.96v-.2s.761-.08.761-.681V.88c0-.561-.761-.64-.761-.64V0h3.96V.2s-.72.119-.72.64V21.562c0,.56.72.681.72.681" transform="translate(-75.708 0)" fill="#fff"/>
    <path id="Path_15" data-name="Path 15" d="M196.234,22.243v.2h-3.959v-.2l.36-.121a.838.838,0,0,0,.239-.159c.08-.121.121-.2.041-.32l-1.96-4.88H180.034c-2.12,4.761-2.12,4.761-2.12,4.8-.08.119.119.321.2.36a1.86,1.86,0,0,0,.4.2s.28.08.28.121v.2h-2.28v-.2a.04.04,0,0,1,.041-.041,1.623,1.623,0,0,0,.4-.16.868.868,0,0,0,.4-.36L186.874.319a.208.208,0,0,1,.08-.159.147.147,0,0,1,.041-.121V0s7.8,19.882,8.44,21.562c0,0,.08.08.08.119a.941.941,0,0,0,.72.561m-16-5.92,10.562-.041-5-12.32a.3.3,0,0,0-.08-.16V3.84l-4.881,11.082a5.53,5.53,0,0,1-.32.72c-.08.2-.2.44-.28.681" transform="translate(-87.186 0)" fill="#fff"/>
    <path id="Path_16" data-name="Path 16" d="M246.77.237s-.841.321-.88.841v21.4h-2.4L232.367,2.518V21.44c.041.52.921.8.921.8v.24h-2.28v-.24s.841-.28.92-.8V.918c0-.52-.759-.681-.759-.681V.077h2.68L245.409,20.8V1.079c-.039-.52-.919-.841-.919-.841V.077h2.28Z" transform="translate(-114.102 -0.038)" fill="#fff"/>
    <path id="Path_17" data-name="Path 17" d="M318.7.718c-.2.4-.2,3.6-.2,20.844,0,.6.722.679.722.679v.241h-3.922V22.24s.72-.039.72-.64V3.8l-8.4,16.963L297.491,2.519V21.441c.041.52.961.8.961.8v.241h-2.32V22.24s.841-.279.919-.8V.919c0-.52-.759-.681-.759-.681V.078h2.68L308.613,17.4,317.174.078h2.28v.2a1.383,1.383,0,0,0-.759.439" transform="translate(-146.269 -0.039)" fill="#fff"/>
    <rect id="Rectangle_9" data-name="Rectangle 9" width="2.184" height="2.184" transform="translate(177.432 20.621) rotate(-45)" fill="#fff"/>
  </g>
</svg>
